<?xml version="1.0" standalone="no"?>
<!DOCTYPE svg PUBLIC "-//W3C//DTD SVG 20010904//EN"
 "http://www.w3.org/TR/2001/REC-SVG-20010904/DTD/svg10.dtd">
<svg version="1.0" xmlns="http://www.w3.org/2000/svg"
 width="480.000000pt" height="480.000000pt" viewBox="0 0 480.000000 480.000000"
 preserveAspectRatio="xMidYMid meet">
<metadata>
Created by potrace 1.14, written by Peter Selinger 2001-2017
</metadata>
<g transform="translate(0.000000,480.000000) scale(0.100000,-0.100000)"
fill="#000000" stroke="none">
<path d="M2220 4793 c-44 -4 -237 -31 -270 -37 -170 -34 -227 -51 -385 -108
-556 -204 -1037 -633 -1305 -1168 -51 -101 -136 -303 -145 -343 -2 -12 -11
-44 -20 -72 -17 -53 -60 -260 -70 -335 -3 -25 -8 -63 -12 -85 -3 -22 -6 -122
-7 -223 -5 -486 122 -928 382 -1327 186 -287 440 -539 734 -729 235 -151 612
-295 866 -332 20 -2 48 -7 62 -9 82 -15 147 -19 340 -19 275 -1 391 11 605 65
517 131 1006 455 1317 874 4 6 19 24 32 41 94 117 236 382 308 574 44 115 104
341 114 423 4 29 8 54 10 58 10 18 19 181 19 354 0 229 -6 298 -39 480 -17 91
-84 324 -98 340 -4 5 -8 15 -8 22 0 24 -102 245 -158 343 -116 203 -231 351
-407 526 -305 302 -681 515 -1090 618 -55 14 -116 28 -135 31 -19 3 -42 8 -50
10 -8 2 -40 7 -70 10 -30 3 -68 9 -85 11 -34 6 -382 11 -435 7z m325 -107 c61
-3 121 -8 135 -10 14 -3 45 -7 70 -10 53 -7 72 -11 165 -31 149 -32 329 -96
490 -175 345 -168 611 -394 873 -740 103 -136 262 -455 311 -625 93 -318 121
-576 99 -895 -4 -47 -9 -92 -12 -100 -3 -8 -8 -37 -10 -65 -14 -134 -85 -381
-160 -555 -139 -320 -380 -636 -656 -860 -30 -25 -57 -47 -60 -51 -3 -3 -57
-40 -120 -81 -120 -80 -290 -171 -375 -203 -27 -10 -54 -21 -60 -25 -24 -18
-308 -100 -395 -114 -19 -3 -48 -8 -65 -11 -73 -12 -95 -15 -180 -22 -152 -12
-398 -6 -490 11 -11 2 -42 7 -70 11 -27 4 -60 9 -72 12 -13 2 -34 5 -47 7 -36
6 -204 54 -266 77 -30 11 -68 25 -85 30 -65 19 -316 150 -415 216 -239 159
-440 349 -603 573 -54 74 -167 254 -167 266 0 3 -9 19 -21 35 -11 16 -17 29
-14 29 4 0 -2 15 -13 33 -67 109 -181 482 -197 642 -2 17 -4 30 -5 30 -1 0 -4
25 -8 55 -15 125 -5 579 13 610 2 3 6 28 9 55 30 221 158 558 304 795 308 500
821 879 1377 1019 168 42 283 59 455 67 69 4 127 8 128 10 2 1 9 1 15 -1 7 -2
62 -6 122 -9z"/>
<path d="M1175 3507 c-10 -12 -41 -49 -69 -82 -28 -33 -60 -70 -71 -84 -11
-13 -25 -29 -30 -35 -6 -6 -32 -37 -59 -68 l-48 -58 74 0 74 0 1 -342 c1 -423
10 -473 114 -628 194 -291 593 -372 893 -183 80 51 182 166 225 255 67 137 69
153 70 674 l1 464 -148 0 -147 0 -1 -452 c-1 -249 -5 -466 -8 -481 -11 -49
-56 -125 -98 -166 -102 -103 -271 -132 -403 -70 -53 25 -135 95 -135 115 0 8
-4 14 -9 14 -5 0 -19 24 -32 53 -20 46 -23 71 -26 207 -3 139 -2 152 10 125
35 -74 102 -117 186 -118 98 -1 175 56 201 149 50 178 -148 326 -305 229 -32
-20 -56 -45 -72 -74 l-23 -44 0 136 0 137 75 0 75 0 -23 26 c-12 15 -27 32
-32 38 -6 6 -35 40 -64 76 -30 36 -57 67 -60 70 -3 3 -22 25 -42 50 -20 25
-45 55 -56 67 l-19 22 -19 -22z"/>
<path d="M3008 3410 c-74 -13 -146 -39 -233 -83 -62 -32 -100 -62 -170 -132
-105 -105 -160 -200 -196 -335 l-23 -85 -1 -930 0 -930 145 0 145 0 0 578 c0
317 1 577 3 577 1 0 21 -11 43 -26 137 -86 271 -127 414 -127 405 1 739 327
749 732 5 175 -49 338 -158 480 -104 135 -259 232 -441 277 -39 10 -231 13
-277 4z m270 -309 c228 -86 355 -306 304 -526 -67 -291 -391 -449 -647 -317
-136 70 -236 206 -252 340 -2 26 -6 56 -7 67 -5 37 23 153 48 204 15 28 28 51
30 51 2 0 1 -23 -2 -50 -14 -148 122 -258 265 -215 103 31 168 143 140 244
-29 110 -141 180 -244 152 -35 -10 -37 -9 -18 5 86 67 269 89 383 45z"/>
</g>
</svg>
